<svg width="62" height="62" viewBox="0 0 62 62" fill="none" xmlns="http://www.w3.org/2000/svg">
<path d="M41.7767 4.42859C39.0863 4.42859 36.9053 6.54659 36.9053 9.15914C36.9053 13.8897 42.6624 18.1902 45.7624 19.1905C48.8624 18.1902 54.6196 13.8897 54.6196 9.15914C54.6196 6.54659 52.4385 4.42859 49.7481 4.42859C48.1007 4.42859 46.6437 5.22289 45.7624 6.43864C45.3132 5.81731 44.7165 5.31023 44.0227 4.96034C43.3289 4.61045 42.5585 4.42805 41.7767 4.42859Z" stroke="#FF7C03" stroke-width="1.5" stroke-linecap="round" stroke-linejoin="round"/>
<path d="M33.4735 17.7144C34.4683 17.7152 35.4213 18.1136 36.102 18.8002L41.6687 24.2413C42.3683 24.9449 42.7611 25.8978 42.7619 26.8924V51.7071C42.7619 54.1278 40.808 56.0953 38.3914 56.0953H16.1801C13.7635 56.0953 11.8096 54.1278 11.8096 51.7071V22.1026C11.8096 19.6818 13.7635 17.7144 16.1801 17.7144H33.4735ZM33.4718 19.5717H16.1801C14.792 19.5717 13.6667 20.7048 13.6667 22.1026V51.7071C13.6667 53.1048 14.792 54.2379 16.1801 54.2379H38.3914C39.7795 54.2379 40.9048 53.1048 40.9048 51.7071V26.8924C40.9044 26.3892 40.7055 25.9067 40.3519 25.5511L34.804 20.1285C34.4508 19.7725 33.9716 19.5722 33.4718 19.5717Z" fill="#FF7C03"/>
<path d="M19.8682 46.1906H34.986C35.3339 46.1906 35.6159 46.4736 35.6159 46.8228C35.6159 47.1719 35.3339 47.455 34.986 47.455H19.8682C19.5203 47.455 19.2383 47.1719 19.2383 46.8228C19.2383 46.4736 19.5203 46.1906 19.8682 46.1906ZM19.8682 49.9839H34.986C35.3339 49.9839 35.6159 50.2669 35.6159 50.6161C35.6159 50.9652 35.3339 51.2483 34.986 51.2483H19.8682C19.5203 51.2483 19.2383 50.9652 19.2383 50.6161C19.2383 50.2669 19.5203 49.9839 19.8682 49.9839Z" fill="#FF7C03"/>
<path fill-rule="evenodd" clip-rule="evenodd" d="M22.7991 38.1624C21.5853 40.0801 20.3906 41.2922 19.6923 41.2922C19.5635 41.2922 19.4577 41.2543 19.3807 41.1827C19.2402 41.0542 19.1884 40.9145 19.2211 40.7446C19.3538 40.0575 20.7369 39.0665 22.7991 38.1624ZM28.6338 35.4195C28.1124 35.527 27.5738 35.6517 27.0275 35.7932C26.635 35.8952 26.2369 36.0065 25.8386 36.1255C26.0502 35.7008 26.2445 35.2798 26.4137 34.8796C26.6369 34.3511 26.8466 33.8225 27.039 33.3053C27.2083 33.5658 27.3834 33.8188 27.5622 34.0622C27.9162 34.5436 28.2974 35.0039 28.6764 35.4097L28.6338 35.4195ZM25.9386 26.2925C26.0367 26.1264 26.1945 26.0264 26.358 26.0264C26.8178 26.0264 26.9178 26.57 26.9178 27.025C26.9217 27.7499 26.6985 28.9052 26.3156 30.1831C25.5442 28.1783 25.652 26.7739 25.9386 26.2925ZM34.5762 36.7692C34.5087 37.1108 34.1491 37.3316 33.6566 37.3316C33.5218 37.3316 33.3815 37.3147 33.2411 37.2807C32.3369 37.0694 31.4712 36.6407 30.6074 35.9725C31.4174 35.8516 32.1002 35.8254 32.5563 35.8254C33.0757 35.8254 33.5508 35.8612 33.8547 35.9235C34.2452 36.0028 34.6857 36.2142 34.5762 36.7692ZM35.8842 35.865C35.309 35.2591 34.2087 34.9513 32.6139 34.9513C31.829 34.9513 30.9422 35.027 29.9726 35.176C29.4474 34.6796 28.9357 34.0944 28.451 33.4337C28.1047 32.9637 27.7854 32.4766 27.4988 31.982C28.0604 30.2473 28.3452 28.839 28.3452 27.7951C28.3452 26.5134 27.8277 25.1429 26.3754 25.1429C25.8982 25.1429 25.4096 25.4261 25.1595 25.8471C24.5401 26.8909 24.7882 29.0391 25.7771 31.225C25.4327 32.2293 25.0575 33.2072 24.5977 34.2906C24.2112 35.2061 23.7514 36.1424 23.2647 37.007C21.7835 37.5923 18.6342 39.0118 18.3342 40.5804C18.2456 41.0506 18.3976 41.494 18.7651 41.83C18.8785 41.9357 19.3114 42.2793 20.0482 42.2793C21.9449 42.2793 23.836 39.7026 25.1095 37.4846C25.8328 37.2429 26.5715 37.024 27.3064 36.8333C28.1124 36.6239 28.8916 36.4521 29.6263 36.3237C31.6348 38.0434 33.42 38.3038 34.3145 38.3038C35.5438 38.3038 36.0034 37.7809 36.1709 37.3411C36.3921 36.7674 36.1765 36.1727 35.8842 35.865Z" fill="#FF7C03"/>
</svg>
