<svg width="62" height="62" viewBox="0 0 62 62" fill="none" xmlns="http://www.w3.org/2000/svg">
<path d="M24.9908 16.2382C25.6259 16.2387 26.2343 16.493 26.669 16.9314L30.2231 20.4054C30.6698 20.8546 30.9205 21.4629 30.9211 22.098V37.9412C30.9211 39.4868 29.6736 40.7429 28.1306 40.7429H13.9496C12.4067 40.7429 11.1592 39.4868 11.1592 37.9412V19.0399C11.1592 17.4943 12.4067 16.2382 13.9496 16.2382H24.9908ZM24.9897 17.424H13.9496C13.0634 17.424 12.3449 18.1475 12.3449 19.0399V37.9412C12.3449 38.8336 13.0634 39.5571 13.9496 39.5571H28.1306C29.0169 39.5571 29.7354 38.8336 29.7354 37.9412V22.098C29.7351 21.7767 29.6081 21.4687 29.3823 21.2416L25.8402 17.7795C25.6147 17.5522 25.3088 17.4243 24.9897 17.424Z" fill="#FF7C03"/>
<path fill-rule="evenodd" clip-rule="evenodd" d="M18.176 29.2933C17.401 30.5178 16.6382 31.2916 16.1924 31.2916C16.1101 31.2916 16.0426 31.2674 15.9934 31.2217C15.9038 31.1397 15.8706 31.0505 15.8915 30.942C15.9763 30.5033 16.8593 29.8706 18.176 29.2933ZM21.9012 27.5422C21.5683 27.6108 21.2244 27.6904 20.8756 27.7807C20.625 27.8459 20.3708 27.9169 20.1166 27.9929C20.2517 27.7218 20.3757 27.453 20.4838 27.1974C20.6263 26.86 20.7601 26.5225 20.883 26.1923C20.9911 26.3586 21.1028 26.5202 21.217 26.6756C21.443 26.9829 21.6864 27.2768 21.9284 27.5359L21.9012 27.5422ZM20.1804 21.7149C20.243 21.6089 20.3438 21.545 20.4482 21.545C20.7417 21.545 20.8056 21.8921 20.8056 22.1826C20.8081 22.6454 20.6655 23.383 20.4211 24.1989C19.9286 22.9189 19.9974 22.0222 20.1804 21.7149ZM25.6952 28.4038C25.6521 28.622 25.4225 28.763 25.108 28.763C25.022 28.763 24.9324 28.7521 24.8428 28.7305C24.2655 28.5955 23.7127 28.3218 23.1613 27.8952C23.6784 27.8181 24.1144 27.8013 24.4055 27.8013C24.7371 27.8013 25.0405 27.8242 25.2345 27.8639C25.4839 27.9146 25.7651 28.0495 25.6952 28.4038ZM26.5303 27.8266C26.163 27.4397 25.4605 27.2432 24.4424 27.2432C23.9412 27.2432 23.375 27.2915 22.756 27.3867C22.4207 27.0697 22.094 26.6961 21.7845 26.2743C21.5634 25.9742 21.3595 25.6632 21.1766 25.3474C21.5351 24.2399 21.7169 23.3408 21.7169 22.6742C21.7169 21.8559 21.3865 20.981 20.4593 20.981C20.1546 20.981 19.8426 21.1618 19.683 21.4305C19.2875 22.097 19.4459 23.4685 20.0773 24.8641C19.8574 25.5053 19.6179 26.1297 19.3243 26.8214C19.0775 27.4059 18.784 28.0037 18.4732 28.5557C17.5275 28.9294 15.5169 29.8357 15.3253 30.8372C15.2687 31.1374 15.3658 31.4205 15.6004 31.635C15.6728 31.7025 15.9492 31.9219 16.4196 31.9219C17.6306 31.9219 18.838 30.2767 19.6511 28.8606C20.1129 28.7063 20.5845 28.5666 21.0537 28.4448C21.5683 28.3111 22.0658 28.2014 22.5349 28.1194C23.8172 29.2174 24.957 29.3837 25.5281 29.3837C26.3129 29.3837 26.6064 29.0498 26.7133 28.769C26.8546 28.4027 26.7169 28.023 26.5303 27.8266Z" fill="#FF7C03"/>
<path d="M19.0865 1.4762C19.7216 1.47676 20.33 1.73107 20.7647 2.16944L24.3188 5.64343C24.7655 6.09264 25.0162 6.70098 25.0168 7.33604V23.1792C25.0168 24.7248 23.7693 25.981 22.2263 25.981H8.04532C6.5024 25.981 5.25488 24.7248 5.25488 23.1792V4.27791C5.25488 2.73236 6.5024 1.4762 8.04532 1.4762H19.0865ZM19.0854 2.66207H8.04532C7.15906 2.66207 6.4406 3.3855 6.4406 4.27791V23.1792C6.4406 24.0717 7.15906 24.7951 8.04532 24.7951H22.2263C23.1126 24.7951 23.8311 24.0717 23.8311 23.1792V7.33604C23.8308 7.01474 23.7038 6.7067 23.478 6.47964L19.9359 3.01755C19.7104 2.79021 19.4045 2.66235 19.0854 2.66207Z" fill="#FF7C03"/>
<path fill-rule="evenodd" clip-rule="evenodd" d="M12.2717 14.5314C11.4967 15.7558 10.7339 16.5297 10.2881 16.5297C10.2058 16.5297 10.1383 16.5055 10.0891 16.4597C9.99947 16.3777 9.96635 16.2885 9.98722 16.1801C10.072 15.7414 10.955 15.1086 12.2717 14.5314ZM15.9969 12.7802C15.664 12.8488 15.3201 12.9284 14.9713 13.0187C14.7207 13.0839 14.4665 13.155 14.2123 13.2309C14.3474 12.9598 14.4714 12.691 14.5795 12.4354C14.722 12.098 14.8558 11.7605 14.9787 11.4304C15.0868 11.5967 15.1985 11.7582 15.3127 11.9136C15.5387 12.2209 15.7821 12.5148 16.0241 12.7739L15.9969 12.7802ZM14.2761 6.95294C14.3387 6.84689 14.4395 6.78302 14.5439 6.78302C14.8374 6.78302 14.9013 7.13011 14.9013 7.42059C14.9038 7.88341 14.7613 8.62106 14.5168 9.43694C14.0243 8.15695 14.0931 7.26027 14.2761 6.95294ZM19.7909 13.6419C19.7478 13.86 19.5182 14.001 19.2037 14.001C19.1177 14.001 19.0281 13.9902 18.9385 13.9685C18.3612 13.8336 17.8084 13.5599 17.257 13.1333C17.7741 13.0561 18.2101 13.0393 18.5012 13.0393C18.8329 13.0393 19.1362 13.0622 19.3302 13.102C19.5796 13.1526 19.8608 13.2875 19.7909 13.6419ZM20.626 13.0646C20.2587 12.6778 19.5562 12.4813 18.5381 12.4813C18.0369 12.4813 17.4707 12.5296 16.8517 12.6247C16.5164 12.3078 16.1897 11.9342 15.8802 11.5123C15.6591 11.2122 15.4552 10.9013 15.2723 10.5855C15.6308 9.4779 15.8126 8.5788 15.8126 7.91228C15.8126 7.09398 15.4822 6.21899 14.555 6.21899C14.2503 6.21899 13.9384 6.3998 13.7787 6.66858C13.3832 7.33503 13.5417 8.70654 14.173 10.1022C13.9531 10.7434 13.7136 11.3677 13.42 12.0594C13.1732 12.6439 12.8797 13.2417 12.5689 13.7937C11.6232 14.1674 9.61256 15.0737 9.42098 16.0752C9.36444 16.3754 9.4615 16.6585 9.69613 16.8731C9.76854 16.9406 10.0449 17.1599 10.5153 17.1599C11.7263 17.1599 12.9337 15.5148 13.7468 14.0987C14.2086 13.9444 14.6802 13.8046 15.1494 13.6829C15.664 13.5491 16.1615 13.4395 16.6306 13.3575C17.9129 14.4554 19.0527 14.6217 19.6238 14.6217C20.4086 14.6217 20.7021 14.2878 20.809 14.007C20.9503 13.6407 20.8126 13.2611 20.626 13.0646Z" fill="#FF7C03"/>
<path d="M19.0865 32.4762C19.7216 32.4768 20.33 32.7311 20.7647 33.1694L24.3188 36.6434C24.7655 37.0926 25.0162 37.701 25.0168 38.336V54.1792C25.0168 55.7248 23.7693 56.981 22.2263 56.981H8.04532C6.5024 56.981 5.25488 55.7248 5.25488 54.1792V35.2779C5.25488 33.7324 6.5024 32.4762 8.04532 32.4762H19.0865ZM19.0854 33.6621H8.04532C7.15906 33.6621 6.4406 34.3855 6.4406 35.2779V54.1792C6.4406 55.0717 7.15906 55.7951 8.04532 55.7951H22.2263C23.1126 55.7951 23.8311 55.0717 23.8311 54.1792V38.336C23.8308 38.0147 23.7038 37.7067 23.478 37.4796L19.9359 34.0176C19.7104 33.7902 19.4045 33.6623 19.0854 33.6621Z" fill="#FF7C03"/>
<path fill-rule="evenodd" clip-rule="evenodd" d="M12.2717 45.5314C11.4967 46.7558 10.7339 47.5297 10.2881 47.5297C10.2058 47.5297 10.1383 47.5055 10.0891 47.4597C9.99947 47.3777 9.96635 47.2885 9.98722 47.1801C10.072 46.7414 10.955 46.1086 12.2717 45.5314ZM15.9969 43.7802C15.664 43.8488 15.3201 43.9284 14.9713 44.0187C14.7207 44.0839 14.4665 44.155 14.2123 44.2309C14.3474 43.9598 14.4714 43.691 14.5795 43.4354C14.722 43.098 14.8558 42.7605 14.9787 42.4304C15.0868 42.5967 15.1985 42.7582 15.3127 42.9136C15.5387 43.2209 15.7821 43.5148 16.0241 43.7739L15.9969 43.7802ZM14.2761 37.9529C14.3387 37.8469 14.4395 37.783 14.5439 37.783C14.8374 37.783 14.9013 38.1301 14.9013 38.4206C14.9038 38.8834 14.7613 39.6211 14.5168 40.4369C14.0243 39.157 14.0931 38.2603 14.2761 37.9529ZM19.7909 44.6419C19.7478 44.86 19.5182 45.001 19.2037 45.001C19.1177 45.001 19.0281 44.9902 18.9385 44.9685C18.3612 44.8336 17.8084 44.5599 17.257 44.1333C17.7741 44.0561 18.2101 44.0393 18.5012 44.0393C18.8329 44.0393 19.1362 44.0622 19.3302 44.102C19.5796 44.1526 19.8608 44.2875 19.7909 44.6419ZM20.626 44.0646C20.2587 43.6778 19.5562 43.4813 18.5381 43.4813C18.0369 43.4813 17.4707 43.5296 16.8517 43.6247C16.5164 43.3078 16.1897 42.9342 15.8802 42.5123C15.6591 42.2122 15.4552 41.9013 15.2723 41.5855C15.6308 40.4779 15.8126 39.5788 15.8126 38.9123C15.8126 38.094 15.4822 37.219 14.555 37.219C14.2503 37.219 13.9384 37.3998 13.7787 37.6686C13.3832 38.335 13.5417 39.7065 14.173 41.1022C13.9531 41.7434 13.7136 42.3677 13.42 43.0594C13.1732 43.6439 12.8797 44.2417 12.5689 44.7937C11.6232 45.1674 9.61256 46.0737 9.42098 47.0752C9.36444 47.3754 9.4615 47.6585 9.69613 47.8731C9.76854 47.9406 10.0449 48.1599 10.5153 48.1599C11.7263 48.1599 12.9337 46.5148 13.7468 45.0987C14.2086 44.9444 14.6802 44.8046 15.1494 44.6829C15.664 44.5491 16.1615 44.4395 16.6306 44.3575C17.9129 45.4554 19.0527 45.6217 19.6238 45.6217C20.4086 45.6217 20.7021 45.2878 20.809 45.007C20.9503 44.6407 20.8126 44.2611 20.626 44.0646Z" fill="#FF7C03"/>
<path d="M46.3872 16.2382C47.0224 16.2387 47.6308 16.493 48.0654 16.9314L51.6196 20.4054C52.0662 20.8546 52.317 21.4629 52.3176 22.098V37.9412C52.3176 39.4868 51.0701 40.7429 49.5271 40.7429H35.3461C33.8032 40.7429 32.5557 39.4868 32.5557 37.9412V19.0399C32.5557 17.4943 33.8032 16.2382 35.3461 16.2382H46.3872ZM46.3862 17.424H35.3461C34.4598 17.424 33.7414 18.1475 33.7414 19.0399V37.9412C33.7414 38.8336 34.4598 39.5571 35.3461 39.5571H49.5271C50.4134 39.5571 51.1319 38.8336 51.1319 37.9412V22.098C51.1316 21.7767 51.0046 21.4687 50.7788 21.2416L47.2367 17.7795C47.0112 17.5522 46.7053 17.4243 46.3862 17.424Z" fill="#FF7C03"/>
<path d="M46.3775 27.9247H42.9331V24.4803C42.9331 24.0497 42.6101 23.6191 42.0719 23.6191C41.5337 23.6191 41.2108 23.9421 41.2108 24.4803V27.9247H37.7664C37.3358 27.9247 36.9053 28.2476 36.9053 28.7858C36.9053 29.324 37.2282 29.6469 37.7664 29.6469H41.2108V33.0914C41.2108 33.5219 41.5337 33.9525 42.0719 33.9525C42.6101 33.9525 42.9331 33.6296 42.9331 33.0914V29.6469H46.3775C46.8081 29.6469 47.2386 29.324 47.2386 28.7858C47.2386 28.2476 46.8081 27.9247 46.3775 27.9247Z" fill="#FF7C03"/>
</svg>
