<svg width="62" height="62" viewBox="0 0 62 62" fill="none" xmlns="http://www.w3.org/2000/svg">
<path d="M45.8096 12.5505V25.0952M45.8096 25.0952L50.2202 20.6677M45.8096 25.0952L41.399 20.6677M39.9288 5.96237C41.029 6.12029 42.0481 6.63311 42.8325 7.42345M53.8957 16.2402C56.1289 16.2402 57.5712 14.4234 57.5712 12.1816C57.5711 11.294 57.2812 10.431 56.7459 9.72461C56.2106 9.01823 55.4594 8.50749 54.6073 8.27059C54.4762 6.61537 53.7928 5.0529 52.6676 3.83581C51.5424 2.61871 50.0412 1.81813 48.4067 1.5635C46.7722 1.30886 45.0999 1.61505 43.6602 2.43257C42.2204 3.25009 41.0975 4.53114 40.4728 6.06863C39.1576 5.70265 37.7514 5.87613 36.5636 6.55091C35.3758 7.22569 34.5037 8.34648 34.1392 9.66674C33.7746 10.987 33.9474 12.3986 34.6196 13.5909C35.2918 14.7833 36.4083 15.6587 37.7235 16.0247" stroke="#FF7C03" stroke-width="1.5" stroke-linecap="round" stroke-linejoin="round"/>
<path d="M33.4735 17.7142C34.4683 17.7151 35.4213 18.1134 36.102 18.8L41.6687 24.2412C42.3683 24.9448 42.7611 25.8976 42.7619 26.8923V51.707C42.7619 54.1277 40.808 56.0952 38.3914 56.0952H16.1801C13.7635 56.0952 11.8096 54.1277 11.8096 51.707V22.1025C11.8096 19.6817 13.7635 17.7142 16.1801 17.7142H33.4735ZM33.4718 19.5716H16.1801C14.792 19.5716 13.6667 20.7047 13.6667 22.1025V51.707C13.6667 53.1047 14.792 54.2378 16.1801 54.2378H38.3914C39.7795 54.2378 40.9048 53.1047 40.9048 51.707V26.8923C40.9044 26.3891 40.7055 25.9066 40.3519 25.551L34.804 20.1284C34.4508 19.7723 33.9716 19.5721 33.4718 19.5716Z" fill="#FF7C03"/>
<path d="M19.8682 46.1904H34.986C35.3339 46.1904 35.6159 46.4735 35.6159 46.8226C35.6159 47.1718 35.3339 47.4549 34.986 47.4549H19.8682C19.5203 47.4549 19.2383 47.1718 19.2383 46.8226C19.2383 46.4735 19.5203 46.1904 19.8682 46.1904ZM19.8682 49.9837H34.986C35.3339 49.9837 35.6159 50.2668 35.6159 50.616C35.6159 50.9651 35.3339 51.2482 34.986 51.2482H19.8682C19.5203 51.2482 19.2383 50.9651 19.2383 50.616C19.2383 50.2668 19.5203 49.9837 19.8682 49.9837Z" fill="#FF7C03"/>
<path fill-rule="evenodd" clip-rule="evenodd" d="M22.7991 38.1622C21.5853 40.08 20.3906 41.2921 19.6923 41.2921C19.5635 41.2921 19.4577 41.2542 19.3807 41.1826C19.2402 41.0541 19.1884 40.9144 19.2211 40.7445C19.3538 40.0574 20.7369 39.0664 22.7991 38.1622ZM28.6338 35.4194C28.1124 35.5269 27.5738 35.6516 27.0275 35.793C26.635 35.8951 26.2369 36.0064 25.8386 36.1254C26.0502 35.7007 26.2445 35.2797 26.4137 34.8794C26.6369 34.351 26.8466 33.8223 27.039 33.3052C27.2083 33.5657 27.3834 33.8187 27.5622 34.0621C27.9162 34.5435 28.2974 35.0037 28.6764 35.4096L28.6338 35.4194ZM25.9386 26.2924C26.0367 26.1263 26.1945 26.0262 26.358 26.0262C26.8178 26.0262 26.9178 26.5699 26.9178 27.0248C26.9217 27.7497 26.6985 28.9051 26.3156 30.183C25.5442 28.1782 25.652 26.7737 25.9386 26.2924ZM34.5762 36.769C34.5087 37.1107 34.1491 37.3315 33.6566 37.3315C33.5218 37.3315 33.3815 37.3146 33.2411 37.2806C32.3369 37.0693 31.4712 36.6406 30.6074 35.9724C31.4174 35.8515 32.1002 35.8252 32.5563 35.8252C33.0757 35.8252 33.5508 35.8611 33.8547 35.9234C34.2452 36.0027 34.6857 36.214 34.5762 36.769ZM35.8842 35.8649C35.309 35.259 34.2087 34.9512 32.6139 34.9512C31.829 34.9512 30.9422 35.0268 29.9726 35.1759C29.4474 34.6795 28.9357 34.0943 28.451 33.4336C28.1047 32.9636 27.7854 32.4765 27.4988 31.9819C28.0604 30.2471 28.3452 28.8389 28.3452 27.795C28.3452 26.5133 27.8277 25.1428 26.3754 25.1428C25.8982 25.1428 25.4096 25.426 25.1595 25.847C24.5401 26.8908 24.7882 29.039 25.7771 31.2249C25.4327 32.2292 25.0575 33.2071 24.5977 34.2905C24.2112 35.206 23.7514 36.1423 23.2647 37.0069C21.7835 37.5922 18.6342 39.0117 18.3342 40.5803C18.2456 41.0504 18.3976 41.4939 18.7651 41.8299C18.8785 41.9356 19.3114 42.2792 20.0482 42.2792C21.9449 42.2792 23.836 39.7025 25.1095 37.4845C25.8328 37.2428 26.5715 37.0239 27.3064 36.8332C28.1124 36.6238 28.8916 36.452 29.6263 36.3235C31.6348 38.0432 33.42 38.3037 34.3145 38.3037C35.5438 38.3037 36.0034 37.7808 36.1709 37.341C36.3921 36.7673 36.1765 36.1726 35.8842 35.8649Z" fill="#FF7C03"/>
</svg>
