<svg width="22" height="22" fill="none" xmlns="http://www.w3.org/2000/svg"><path d="M7.245 6.629a1.364 1.364 0 0 1-1.871 0 1.19 1.19 0 0 1 0-1.732l4.69-4.526C10.314.131 10.65 0 11 0c.35 0 .687.132.935.371l4.691 4.526c.499.481.499 1.25 0 1.732a1.364 1.364 0 0 1-1.871 0L11 3.005 7.245 6.63ZM14.755 15.371a1.364 1.364 0 0 1 1.871 0 1.19 1.19 0 0 1 0 1.732l-4.69 4.526c-.249.24-.586.371-.936.371-.35 0-.687-.132-.935-.372l-4.691-4.525a1.189 1.189 0 0 1 0-1.732 1.364 1.364 0 0 1 1.871 0L11 18.995l3.755-3.624Z" fill="#47474F"/><circle cx="11" cy="11" r="2" fill="#47474F"/></svg>