<svg width="62" height="62" viewBox="0 0 62 62" fill="none" xmlns="http://www.w3.org/2000/svg">
<path d="M37.6396 10.3334C38.8258 10.3344 39.962 10.8093 40.7736 11.628L47.4108 18.1156C48.245 18.9544 48.7133 20.0905 48.7143 21.2765V50.8632C48.7143 53.7494 46.3846 56.0953 43.5033 56.0953H17.0206C14.1393 56.0953 11.8096 53.7494 11.8096 50.8632V15.5655C11.8096 12.6792 14.1393 10.3334 17.0206 10.3334H37.6396ZM37.6377 12.5479H17.0206C15.3656 12.5479 14.0239 13.8989 14.0239 15.5655V50.8632C14.0239 52.5297 15.3656 53.8807 17.0206 53.8807H43.5033C45.1583 53.8807 46.5 52.5297 46.5 50.8632V21.2765C46.4995 20.6764 46.2624 20.1012 45.8408 19.6772L39.226 13.2118C38.8049 12.7873 38.2336 12.5485 37.6377 12.5479Z" fill="#FF7C03"/>
<path fill-rule="evenodd" clip-rule="evenodd" d="M24.9125 34.7137C23.4652 37.0003 22.0408 38.4454 21.2082 38.4454C21.0546 38.4454 20.9284 38.4002 20.8367 38.3148C20.6692 38.1617 20.6074 37.9951 20.6463 37.7926C20.8046 36.9733 22.4537 35.7917 24.9125 34.7137ZM31.8692 31.4434C31.2476 31.5716 30.6053 31.7202 29.954 31.8889C29.486 32.0106 29.0113 32.1433 28.5365 32.2851C28.7888 31.7788 29.0204 31.2768 29.2222 30.7996C29.4883 30.1695 29.7383 29.5392 29.9678 28.9227C30.1696 29.2332 30.3783 29.5348 30.5915 29.8251C31.0136 30.399 31.4681 30.9478 31.92 31.4317L31.8692 31.4434ZM28.6557 20.5612C28.7727 20.3631 28.9608 20.2439 29.1558 20.2439C29.704 20.2439 29.8232 20.892 29.8232 21.4345C29.8278 22.2988 29.5617 23.6763 29.1053 25.2C28.1855 22.8096 28.3139 21.1351 28.6557 20.5612ZM38.9543 33.0526C38.8739 33.4599 38.4451 33.7232 37.8579 33.7232C37.6972 33.7232 37.5299 33.703 37.3625 33.6625C36.2845 33.4105 35.2522 32.8994 34.2224 32.1027C35.1881 31.9586 36.0023 31.9273 36.546 31.9273C37.1653 31.9273 37.7318 31.9701 38.0941 32.0443C38.5598 32.1389 39.085 32.3908 38.9543 33.0526ZM40.514 31.9746C39.8281 31.2521 38.5162 30.8851 36.6148 30.8851C35.6789 30.8851 34.6216 30.9753 33.4655 31.153C32.8393 30.5612 32.2292 29.8635 31.6513 29.0757C31.2384 28.5153 30.8576 27.9346 30.516 27.3448C31.1856 25.2765 31.5251 23.5974 31.5251 22.3527C31.5251 20.8246 30.9081 19.1906 29.1765 19.1906C28.6075 19.1906 28.025 19.5282 27.7268 20.0301C26.9882 21.2747 27.2841 23.836 28.4631 26.4423C28.0526 27.6397 27.6052 28.8056 27.057 30.0973C26.5961 31.1889 26.0479 32.3053 25.4676 33.3362C23.7016 34.034 19.9467 35.7265 19.5889 37.5968C19.4833 38.1573 19.6646 38.6861 20.1027 39.0867C20.238 39.2127 20.7541 39.6224 21.6326 39.6224C23.894 39.6224 26.1487 36.5501 27.6672 33.9056C28.5296 33.6175 29.4104 33.3565 30.2866 33.1291C31.2476 32.8794 32.1766 32.6746 33.0526 32.5214C35.4473 34.5718 37.5758 34.8824 38.6423 34.8824C40.108 34.8824 40.6561 34.2589 40.8557 33.7345C41.1196 33.0505 40.8625 32.3414 40.514 31.9746Z" fill="#FF7C03"/>
<path d="M31.0003 53.6965C34.5672 53.6965 37.4587 50.805 37.4587 47.2381C37.4587 43.6713 34.5672 40.7798 31.0003 40.7798C27.4335 40.7798 24.542 43.6713 24.542 47.2381C24.542 50.805 27.4335 53.6965 31.0003 53.6965Z" stroke="#FF7C03" stroke-width="1.5" stroke-linecap="round" stroke-linejoin="round"/>
<path d="M28.2324 47.2382H33.7681" stroke="#FF7C03" stroke-width="1.5" stroke-linecap="round" stroke-linejoin="round"/>
<path d="M31 44.4702V50.0059" stroke="#FF7C03" stroke-width="1.5" stroke-linecap="round" stroke-linejoin="round"/>
</svg>
