<svg width="62" height="62" viewBox="0 0 62 62" fill="none" xmlns="http://www.w3.org/2000/svg">
<path fill-rule="evenodd" clip-rule="evenodd" d="M53.9302 28.7857C53.9302 25.6776 53.318 22.5998 52.1286 19.7283C50.9393 16.8567 49.196 14.2475 46.9984 12.0497C44.8007 9.85194 42.1917 8.10855 39.3203 6.91911C36.4489 5.72966 33.3714 5.11747 30.2635 5.11747V1.4762C35.7524 1.47621 41.1139 3.13045 45.6488 6.22316C50.1836 9.31586 53.6813 13.7035 55.6855 18.8137C57.6898 23.924 58.1076 29.5197 56.8846 34.8709C55.6615 40.2222 52.8543 45.0807 48.8291 48.8127H57.5712V52.454H43.0071V37.8889H46.6481V45.8633C48.9536 43.6571 50.7876 41.0062 52.0392 38.0709C53.2909 35.1355 53.9342 31.9768 53.9302 28.7857ZM11.6942 8.75874H2.95573V5.11747H17.5199V19.6825H13.8788V11.7082C10.4715 14.978 8.12023 19.1924 7.12736 23.8094C6.13449 28.4264 6.54543 33.2349 8.30733 37.6165C10.0692 41.998 13.1015 45.7523 17.0143 48.3964C20.927 51.0406 25.5412 52.4537 30.2635 52.454V56.0952C24.7742 56.096 19.4122 54.4422 14.8768 51.3498C10.3414 48.2574 6.84315 43.8698 4.83843 38.7594C2.83371 33.649 2.41555 28.053 3.63851 22.7014C4.86146 17.3498 7.66876 12.4909 11.6942 8.75874Z" fill="#FF7C03"/>
<path d="M24.9908 16.2382C25.6259 16.2387 26.2343 16.493 26.669 16.9314L30.2231 20.4054C30.6698 20.8546 30.9205 21.4629 30.9211 22.098V37.9412C30.9211 39.4868 29.6736 40.7429 28.1306 40.7429H13.9496C12.4067 40.7429 11.1592 39.4868 11.1592 37.9412V19.0399C11.1592 17.4943 12.4067 16.2382 13.9496 16.2382H24.9908ZM24.9897 17.424H13.9496C13.0634 17.424 12.3449 18.1475 12.3449 19.0399V37.9412C12.3449 38.8336 13.0634 39.5571 13.9496 39.5571H28.1306C29.0169 39.5571 29.7354 38.8336 29.7354 37.9412V22.098C29.7351 21.7767 29.6081 21.4687 29.3823 21.2416L25.8402 17.7795C25.6147 17.5522 25.3088 17.4243 24.9897 17.424Z" fill="#FF7C03"/>
<path d="M16.3035 34.4192H25.9557C26.1778 34.4192 26.3578 34.5999 26.3578 34.8228C26.3578 35.0458 26.1778 35.2265 25.9557 35.2265H16.3035C16.0814 35.2265 15.9014 35.0458 15.9014 34.8228C15.9014 34.5999 16.0814 34.4192 16.3035 34.4192ZM16.3035 36.8411H25.9557C26.1778 36.8411 26.3578 37.0218 26.3578 37.2447C26.3578 37.4677 26.1778 37.6484 25.9557 37.6484H16.3035C16.0814 37.6484 15.9014 37.4677 15.9014 37.2447C15.9014 37.0218 16.0814 36.8411 16.3035 36.8411Z" fill="#FF7C03"/>
<path fill-rule="evenodd" clip-rule="evenodd" d="M18.176 29.2933C17.401 30.5178 16.6382 31.2916 16.1924 31.2916C16.1101 31.2916 16.0426 31.2674 15.9934 31.2217C15.9038 31.1397 15.8706 31.0505 15.8915 30.942C15.9763 30.5033 16.8593 29.8706 18.176 29.2933ZM21.9012 27.5422C21.5683 27.6108 21.2244 27.6904 20.8756 27.7807C20.625 27.8459 20.3708 27.9169 20.1166 27.9929C20.2517 27.7218 20.3757 27.453 20.4838 27.1974C20.6263 26.86 20.7601 26.5225 20.883 26.1923C20.9911 26.3586 21.1028 26.5202 21.217 26.6756C21.443 26.9829 21.6864 27.2768 21.9284 27.5359L21.9012 27.5422ZM20.1804 21.7149C20.243 21.6089 20.3438 21.545 20.4482 21.545C20.7417 21.545 20.8056 21.8921 20.8056 22.1826C20.8081 22.6454 20.6655 23.383 20.4211 24.1989C19.9286 22.9189 19.9974 22.0222 20.1804 21.7149ZM25.6952 28.4038C25.6521 28.622 25.4225 28.763 25.108 28.763C25.022 28.763 24.9324 28.7521 24.8428 28.7305C24.2655 28.5955 23.7127 28.3218 23.1613 27.8952C23.6784 27.8181 24.1144 27.8013 24.4055 27.8013C24.7371 27.8013 25.0405 27.8242 25.2345 27.8639C25.4839 27.9146 25.7651 28.0495 25.6952 28.4038ZM26.5303 27.8266C26.163 27.4397 25.4605 27.2432 24.4424 27.2432C23.9412 27.2432 23.375 27.2915 22.756 27.3867C22.4207 27.0697 22.094 26.6961 21.7845 26.2743C21.5634 25.9742 21.3595 25.6632 21.1766 25.3474C21.5351 24.2399 21.7169 23.3408 21.7169 22.6742C21.7169 21.8559 21.3865 20.981 20.4593 20.981C20.1546 20.981 19.8426 21.1618 19.683 21.4305C19.2875 22.097 19.4459 23.4685 20.0773 24.8641C19.8574 25.5053 19.6179 26.1297 19.3243 26.8214C19.0775 27.4059 18.784 28.0037 18.4732 28.5557C17.5275 28.9294 15.5169 29.8357 15.3253 30.8372C15.2687 31.1374 15.3658 31.4205 15.6004 31.635C15.6728 31.7025 15.9492 31.9219 16.4196 31.9219C17.6306 31.9219 18.838 30.2767 19.6511 28.8606C20.1129 28.7063 20.5845 28.5666 21.0537 28.4448C21.5683 28.3111 22.0658 28.2014 22.5349 28.1194C23.8172 29.2174 24.957 29.3837 25.5281 29.3837C26.3129 29.3837 26.6064 29.0498 26.7133 28.769C26.8546 28.4027 26.7169 28.023 26.5303 27.8266Z" fill="#FF7C03"/>
<path d="M43.4341 16.2382C44.0693 16.2387 44.6777 16.493 45.1123 16.9314L48.6664 20.4054C49.1131 20.8546 49.3639 21.4629 49.3644 22.098V37.9412C49.3644 39.4868 48.1169 40.7429 46.574 40.7429H32.393C30.8501 40.7429 29.6025 39.4868 29.6025 37.9412V19.0399C29.6025 17.4943 30.8501 16.2382 32.393 16.2382H43.4341ZM43.4331 17.424H32.393C31.5067 17.424 30.7883 18.1475 30.7883 19.0399V37.9412C30.7883 38.8336 31.5067 39.5571 32.393 39.5571H46.574C47.4603 39.5571 48.1787 38.8336 48.1787 37.9412V22.098C48.1784 21.7767 48.0515 21.4687 47.8257 21.2416L44.2836 17.7795C44.0581 17.5522 43.7522 17.4243 43.4331 17.424Z" fill="#FF7C03"/>
<path d="M43.4244 27.9247H39.9799V24.4803C39.9799 24.0497 39.657 23.6191 39.1188 23.6191C38.5806 23.6191 38.2577 23.9421 38.2577 24.4803V27.9247H34.8133C34.3827 27.9247 33.9521 28.2476 33.9521 28.7858C33.9521 29.324 34.2751 29.6469 34.8133 29.6469H38.2577V33.0914C38.2577 33.5219 38.5806 33.9525 39.1188 33.9525C39.657 33.9525 39.9799 33.6296 39.9799 33.0914V29.6469H43.4244C43.8549 29.6469 44.2855 29.324 44.2855 28.7858C44.2855 28.2476 43.8549 27.9247 43.4244 27.9247Z" fill="#FF7C03"/>
</svg>
