<svg width="70" height="69" viewBox="0 0 70 69" fill="none" xmlns="http://www.w3.org/2000/svg">
<path fill-rule="evenodd" clip-rule="evenodd" d="M65.5 43.125V64.5C65.5 65.6935 65.0259 66.8381 64.182 67.682C63.3381 68.5259 62.1935 69 61 69H58.75V66.75H61C61.5967 66.75 62.169 66.5129 62.591 66.091C63.0129 65.669 63.25 65.0967 63.25 64.5V43.125H58.75C57.8549 43.125 56.9964 42.7694 56.3635 42.1365C55.7306 41.5036 55.375 40.6451 55.375 39.75V35.25H43C42.4033 35.25 41.831 35.4871 41.409 35.909C40.9871 36.331 40.75 36.9033 40.75 37.5V57.75H38.5V37.5C38.5 36.3065 38.9741 35.1619 39.818 34.318C40.6619 33.4741 41.8065 33 43 33H55.375L65.5 43.125ZM37.6 59.6625H34V68.6603H35.7797V65.6408H37.5865C38.2322 65.6408 38.7812 65.5125 39.2335 65.2515C39.6902 64.9882 40.039 64.6327 40.2752 64.185C40.5205 63.7152 40.645 63.1917 40.6375 62.6617C40.6375 62.0992 40.5182 61.5907 40.282 61.1385C40.047 60.6889 39.6877 60.3164 39.247 60.0653C38.797 59.7952 38.2502 59.6625 37.6 59.6625ZM38.8263 62.6617C38.8344 62.9582 38.7686 63.252 38.635 63.5168C38.5151 63.7472 38.3285 63.9362 38.0995 64.059C37.8376 64.1886 37.5479 64.2519 37.2558 64.2435H35.773V61.08H37.258C37.7485 61.08 38.1333 61.215 38.41 61.4873C38.6867 61.7618 38.8263 62.1532 38.8263 62.6617ZM41.5645 59.6625V68.6603H44.8495C45.7517 68.6603 46.501 68.4803 47.095 68.127C47.6961 67.7674 48.1655 67.2238 48.4338 66.5768C48.7262 65.9018 48.8748 65.0872 48.8748 64.1377C48.8748 63.1927 48.7285 62.3872 48.4338 61.719C48.1687 61.0794 47.7038 60.5426 47.1085 60.189C46.5145 59.838 45.7607 59.6625 44.8472 59.6625H41.5645ZM43.3442 61.1138H44.611C45.169 61.1138 45.6235 61.2263 45.9812 61.4558C46.3526 61.6986 46.6328 62.0579 46.7778 62.4772C46.9555 62.9295 47.0433 63.4942 47.0433 64.1715C47.0502 64.6203 46.9988 65.068 46.8903 65.5035C46.8101 65.847 46.66 66.1702 46.4493 66.453C46.2535 66.7053 45.9941 66.901 45.6978 67.02C45.3505 67.1499 44.9817 67.2125 44.611 67.2045H43.3442V61.1138ZM51.766 65.0805V68.6603H49.9885V59.6625H55.7215V61.1318H51.766V63.645H55.3795V65.0805H51.766Z" fill="#687CC3"/>
<path fill-rule="evenodd" clip-rule="evenodd" d="M48.0013 55.3963C46.9195 57.075 45.8547 58.1359 45.2324 58.1359C45.1175 58.1359 45.0232 58.1028 44.9546 58.0401C44.8295 57.9276 44.7832 57.8054 44.8124 57.6567C44.9306 57.0552 46.1633 56.1877 48.0013 55.3963ZM53.2014 52.9954C52.7368 53.0895 52.2567 53.1986 51.7698 53.3225C51.42 53.4118 51.0652 53.5092 50.7102 53.6134C50.8988 53.2416 51.0719 52.8731 51.2228 52.5228C51.4217 52.0602 51.6086 51.5975 51.7801 51.1448C51.931 51.3728 52.087 51.5943 52.2463 51.8073C52.5618 52.2287 52.9016 52.6316 53.2394 52.9868L53.2014 52.9954ZM50.7994 45.0062C50.8868 44.8608 51.0274 44.7733 51.1731 44.7733C51.5829 44.7733 51.672 45.2491 51.672 45.6474C51.6755 46.2819 51.4766 47.2932 51.1354 48.4118C50.4479 46.6569 50.5439 45.4276 50.7994 45.0062ZM58.4975 54.1768C58.4374 54.4759 58.1169 54.6691 57.678 54.6691C57.5579 54.6691 57.4328 54.6543 57.3076 54.6246C56.5018 54.4396 55.7302 54.0644 54.9604 53.4795C55.6823 53.3737 56.2909 53.3507 56.6973 53.3507C57.1602 53.3507 57.5837 53.3821 57.8545 53.4366C58.2026 53.506 58.5952 53.691 58.4975 54.1768ZM59.6633 53.3854C59.1507 52.855 58.17 52.5856 56.7487 52.5856C56.0491 52.5856 55.2588 52.6518 54.3946 52.7823C53.9266 52.3477 53.4705 51.8355 53.0385 51.2571C52.7299 50.8457 52.4453 50.4194 52.1899 49.9864C52.6904 48.468 52.9442 47.2353 52.9442 46.3215C52.9442 45.1996 52.483 44 51.1886 44C50.7633 44 50.3279 44.2479 50.1049 44.6164C49.5529 45.5301 49.7741 47.4104 50.6554 49.3238C50.3485 50.2029 50.0141 51.0589 49.6043 52.0072C49.2598 52.8086 48.85 53.6282 48.4162 54.385C47.0961 54.8973 44.2894 56.1398 44.0219 57.5129C43.943 57.9244 44.0785 58.3126 44.406 58.6067C44.5071 58.6993 44.8929 59 45.5496 59C47.24 59 48.9254 56.7445 50.0604 54.803C50.7051 54.5915 51.3634 54.3999 52.0184 54.233C52.7368 54.0496 53.4312 53.8993 54.086 53.7868C55.876 55.2922 57.4671 55.5201 58.2643 55.5201C59.3599 55.5201 59.7696 55.0624 59.9188 54.6774C60.116 54.1752 59.9239 53.6547 59.6633 53.3854Z" fill="#687CC3"/>
<path d="M21.8686 16.2663H23.3802L21.6367 23.9969L19.3705 13.1272H15.7283L13.0923 23.9969L11.117 13.1272H7.30859L11.1739 30.6228H14.8948L17.5023 20.2759L19.8342 30.6228H23.2642L27.6939 13.1272H21.8686V16.2663Z" fill="#687CC3"/>
<path d="M31.3709 7.82906C30.6119 6.79437 29.5531 5.5825 28.3916 4.42094C27.23 3.25937 26.0181 2.20062 24.9834 1.44156C23.2203 0.14875 22.365 0 21.875 0H4.92188C3.41469 0 2.1875 1.22719 2.1875 2.73438V32.2656C2.1875 33.7728 3.41469 35 4.92188 35H30.0781C31.5853 35 32.8125 33.7728 32.8125 32.2656V10.9375C32.8125 10.4475 32.6637 9.59219 31.3709 7.82906ZM26.8428 5.96969C27.8928 7.01969 28.7153 7.96469 29.3234 8.75H24.0603V3.48906C24.8456 4.09719 25.795 4.91969 26.8428 5.96969ZM30.625 32.2656C30.625 32.5631 30.3756 32.8125 30.0781 32.8125H4.92188C4.77736 32.8108 4.63925 32.7526 4.53706 32.6504C4.43487 32.5482 4.3767 32.4101 4.375 32.2656V2.73438C4.375 2.43906 4.62656 2.1875 4.92188 2.1875H21.875V9.84375C21.875 10.1338 21.9902 10.412 22.1954 10.6171C22.4005 10.8223 22.6787 10.9375 22.9688 10.9375H30.625V32.2656Z" fill="#687CC3"/>
<path d="M55 24L50 29L45 24" stroke="#687CC3" stroke-width="2" stroke-linecap="round" stroke-linejoin="round"/>
<path d="M50 29L50 21C50 15.477 45.523 11 40 11L39 11" stroke="#687CC3" stroke-width="2" stroke-linecap="round" stroke-linejoin="round"/>
</svg>
