<svg width="62" height="62" viewBox="0 0 62 62" fill="none" xmlns="http://www.w3.org/2000/svg">
<path d="M30.2616 2.95239C35.336 2.95239 38.3807 8.85715 38.3807 8.85715C38.3807 8.85715 35.336 14.7619 30.2616 14.7619C25.1872 14.7619 22.1426 8.85715 22.1426 8.85715C22.1426 8.85715 25.1872 2.95239 30.2616 2.95239ZM30.2616 4.02599C26.6892 4.02599 24.1703 7.51624 23.3351 8.85715C24.1693 10.197 26.6882 13.6883 30.2616 13.6883C33.834 13.6883 36.3529 10.1981 37.1882 8.85715C36.354 7.51731 33.835 4.02599 30.2616 4.02599ZM30.2616 5.09958C31.2037 5.09958 32.1072 5.49547 32.7733 6.20015C33.4395 6.90483 33.8137 7.86058 33.8137 8.85715C33.8137 9.85373 33.4395 10.8095 32.7733 11.5142C32.1072 12.2188 31.2037 12.6147 30.2616 12.6147C29.3196 12.6147 28.4161 12.2188 27.7499 11.5142C27.0838 10.8095 26.7095 9.85373 26.7095 8.85715C26.7095 7.86058 27.0838 6.90483 27.7499 6.20015C28.4161 5.49547 29.3196 5.09958 30.2616 5.09958ZM30.2616 6.17317C29.589 6.17402 28.9441 6.45707 28.4684 6.96023C27.9928 7.46339 27.7252 8.14558 27.7244 8.85715C27.7244 10.3366 28.8621 11.5411 30.2616 11.5411C31.6611 11.5411 32.7988 10.3366 32.7988 8.85715C32.7988 7.37774 31.6611 6.17317 30.2616 6.17317Z" fill="#FF7C03"/>
<path d="M10.333 26.5899C10.333 24.95 11.6832 23.619 13.3469 23.619H48.6525C50.3161 23.619 51.6663 24.95 51.6663 26.5899V54.6006C51.6663 55.3885 51.3488 56.1441 50.7836 56.7013C50.2184 57.2584 49.4518 57.5714 48.6525 57.5714H13.3469C12.5476 57.5714 11.781 57.2584 11.2158 56.7013C10.6505 56.1441 10.333 55.3885 10.333 54.6006V26.5899ZM49.083 32.1071H12.9163V54.6006C12.9163 54.8348 13.1092 55.025 13.3469 55.025H48.6525C48.7666 55.025 48.8762 54.9803 48.9569 54.9007C49.0376 54.8211 49.083 54.7131 49.083 54.6006V32.1071ZM31.8608 26.1654V29.5607H49.083V26.5899C49.083 26.4773 49.0376 26.3693 48.9569 26.2898C48.8762 26.2102 48.7666 26.1654 48.6525 26.1654H31.8608ZM22.3886 26.1654V29.5607H29.2775V26.1654H22.3886ZM13.3469 26.1654C13.2327 26.1654 13.1232 26.2102 13.0424 26.2898C12.9617 26.3693 12.9163 26.4773 12.9163 26.5899V29.5607H19.8052V26.1654H13.3469Z" fill="#FF7C03"/>
<path fill-rule="evenodd" clip-rule="evenodd" d="M24.9125 49.4755C23.4652 51.7621 22.0408 53.2073 21.2082 53.2073C21.0546 53.2073 20.9284 53.1621 20.8367 53.0767C20.6692 52.9235 20.6074 52.757 20.6463 52.5544C20.8046 51.7351 22.4537 50.5535 24.9125 49.4755ZM31.8692 46.2052C31.2476 46.3334 30.6053 46.482 29.954 46.6507C29.486 46.7724 29.0113 46.9051 28.5365 47.047C28.7888 46.5406 29.0204 46.0387 29.2222 45.5614C29.4883 44.9313 29.7383 44.3011 29.9678 43.6845C30.1696 43.995 30.3783 44.2967 30.5915 44.5869C31.0136 45.1608 31.4681 45.7096 31.92 46.1935L31.8692 46.2052ZM28.6557 35.323C28.7727 35.125 28.9608 35.0057 29.1558 35.0057C29.704 35.0057 29.8232 35.6539 29.8232 36.1963C29.8278 37.0606 29.5617 38.4382 29.1053 39.9618C28.1855 37.5715 28.3139 35.8969 28.6557 35.323ZM38.9543 47.8144C38.8739 48.2218 38.4451 48.485 37.8579 48.485C37.6972 48.485 37.5299 48.4649 37.3625 48.4243C36.2845 48.1724 35.2522 47.6613 34.2224 46.8646C35.1881 46.7205 36.0023 46.6891 36.546 46.6891C37.1653 46.6891 37.7318 46.7319 38.0941 46.8061C38.5598 46.9007 39.085 47.1527 38.9543 47.8144ZM40.514 46.7364C39.8281 46.014 38.5162 45.647 36.6148 45.647C35.6789 45.647 34.6216 45.7372 33.4655 45.9149C32.8393 45.323 32.2292 44.6253 31.6513 43.8375C31.2384 43.2771 30.8576 42.6964 30.516 42.1067C31.1856 40.0383 31.5251 38.3593 31.5251 37.1146C31.5251 35.5864 30.9081 33.9524 29.1765 33.9524C28.6075 33.9524 28.025 34.29 27.7268 34.792C26.9882 36.0366 27.2841 38.5978 28.4631 41.2041C28.0526 42.4015 27.6052 43.5675 27.057 44.8592C26.5961 45.9507 26.0479 47.0671 25.4676 48.098C23.7016 48.7959 19.9467 50.4883 19.5889 52.3586C19.4833 52.9192 19.6646 53.4479 20.1027 53.8485C20.238 53.9746 20.7541 54.3842 21.6326 54.3842C23.894 54.3842 26.1487 51.312 27.6672 48.6674C28.5296 48.3793 29.4104 48.1183 30.2866 47.8909C31.2476 47.6412 32.1766 47.4364 33.0526 47.2832C35.4473 49.3337 37.5758 49.6442 38.6423 49.6442C40.108 49.6442 40.6561 49.0207 40.8557 48.4963C41.1196 47.8123 40.8625 47.1033 40.514 46.7364Z" fill="#FF7C03"/>
<path d="M39.8569 26.8297V19.7142C39.8569 18.6097 38.9615 17.7142 37.8569 17.7142H4.95215C3.84758 17.7142 2.95215 18.6097 2.95215 19.7142V43.7619C2.95215 44.8664 3.84758 45.7619 4.95215 45.7619H12.3592" stroke="#FF7C03" stroke-width="1.5" stroke-linecap="round"/>
</svg>
